<?xml version="1.0" encoding="UTF-8"?>
<!DOCTYPE svg PUBLIC "-//W3C//DTD SVG 1.1//EN" "http://www.w3.org/Graphics/SVG/1.1/DTD/svg11.dtd">
<!-- Creator: CorelDRAW X7 -->
<svg xmlns="http://www.w3.org/2000/svg" xml:space="preserve" width="793px" height="140px" version="1.1" style="shape-rendering:geometricPrecision; text-rendering:geometricPrecision; image-rendering:optimizeQuality; fill-rule:evenodd; clip-rule:evenodd"
viewBox="0 0 49089872 8663043"
 xmlns:xlink="http://www.w3.org/1999/xlink">
 <defs>
  <style type="text/css">
   <![CDATA[
    .fil1 {fill:#FEFEFE;fill-rule:nonzero}
    .fil0 {fill:#28A745;fill-rule:nonzero}
    .fil2 {fill:#364741;fill-rule:nonzero}
   ]]>
  </style>
 </defs>
 <g id="Layer_x0020_1">
  <metadata id="CorelCorpID_0Corel-Layer"/>
  <path class="fil0" d="M17887771 7606915c0,583289 -472932,1056128 -1056245,1056128l-15776007 -632c-583312,0 -1055519,-472207 -1055519,-1055496l0 -6551419c0,-583289 472207,-1055496 1055519,-1055496l15776007 0c583313,0 1056245,472932 1056245,1055496l0 6551419z"/>
  <path class="fil1" d="M5004898 2749073l0 -737976 1558505 0 0 599837c159906,-227455 372358,-407631 636607,-539755 264225,-132124 550240,-198198 858023,-198198 467689,0 828766,133645 1084051,400913 255284,267994 382867,668860 382867,1204121l0 2407493 525478 27736 0 737976 -2195111 0 0 -701183 304084 -27759c92312,-12077 159883,-38361 203441,-78034 42809,-39836 64576,-115647 64576,-225933l0 -1900810c0,-337859 -52569,-588556 -156911,-751482 -105067,-162926 -303265,-244728 -595319,-244728 -292055,0 -523957,92335 -696689,277028 -171914,184646 -258187,403090 -258187,654582l0 2232607 526227 27736 0 737976 -2195837 0 0 -701183 304787 -27759c92405,-12077 160000,-38361 202715,-78034 42832,-39836 64599,-115647 64599,-225933l0 -2555440c0,-184716 -76606,-280024 -230544,-286015l-387362 -27783zm7905710 -876092l0 0c460902,0 826496,111878 1097509,336337 270217,224483 406156,539755 406156,945911 0,270194 -58537,508954 -175705,714665 -116349,206413 -261159,367818 -433096,484190 -172710,117121 -381393,212429 -627643,285946 -412125,123066 -876022,184669 -1392559,184669 18069,325758 119345,588626 304085,789094 184646,199649 467666,299451 848989,299451 380597,0 761990,-135120 1143407,-406063l350521 747643c-123137,110310 -330299,224482 -622353,340761 -291984,117075 -626122,175776 -1000680,175776 -750686,0 -1300950,-208029 -1651541,-623126 -350522,-415120 -525501,-984881 -525501,-1710874 0,-725922 199672,-1334700 599134,-1826427 400095,-491704 959370,-737953 1679277,-737953zm-419614 2107972l0 0c224482,-40515 431621,-129128 622329,-267970 190615,-138139 285922,-302563 285922,-493248 0,-375354 -184646,-562997 -553236,-562997 -344530,0 -608778,137368 -793518,410651 -184646,273985 -285922,601311 -303991,982634 270287,-5968 518011,-29280 742494,-69070zm3592093 -2947201l0 0 599744 0 0 977345 880610 0 -91586 774746 -789024 0 0 2426218c0,271106 49596,460270 147899,567514 98374,107408 249971,161428 456455,161428 205711,0 413669,-64506 622353,-193681l276958 710217c-307760,215448 -698117,322692 -1171119,322692 -276911,0 -511224,-35155 -701113,-105793 -190708,-70638 -332546,-149327 -424857,-235764 -91610,-85477 -162879,-211586 -211750,-377531 -49503,-166600 -77262,-297227 -83300,-392698 -6039,-95307 -8941,-234968 -8941,-419614l0 -2462988 -655402 0 92335 -673377c288988,-24037 507432,-127607 655308,-308508 147150,-181674 283020,-438409 405430,-770206z"/>
  <path class="fil2" d="M22051872 8145850c-337765,319814 -867057,479627 -1586239,479627 -719908,0 -1282155,-102095 -1688311,-304647l0 -1282225 876092 -73564 0 442856c0,165946 77332,277707 231176,336244 153190,58538 365595,87888 635882,87888 394149,0 670381,-118525 830288,-355109 159906,-237238 240211,-570580 240211,-1000680l0 -507502c-295050,344623 -704179,516537 -1226684,516537 -320539,0 -601288,-61604 -844495,-184646 -243277,-123207 -431622,-288988 -567584,-497672 -264225,-418163 -396303,-910686 -396303,-1476679 0,-805501 218421,-1415824 655308,-1830967 436139,-415098 1017205,-622330 1743151,-622330 602809,0 1171844,113376 1706380,340831l0 3422380c0,523325 -6039,858117 -18069,1005994 -55541,682341 -252218,1183875 -590803,1503664zm-460901 -3376622l0 0 0 -1983385c-215448,-73540 -461721,-110357 -737953,-110357 -375355,0 -662821,138140 -862564,415144 -199649,276256 -299544,651610 -299544,1125338 0,971423 319064,1456994 958643,1456994 265068,0 488006,-80959 668884,-244002 181650,-162879 272534,-382844 272534,-659732z"/>
  <path class="fil2" d="M27697123 2195767l0 3431391c0,98373 16524,165968 50298,202715 33798,37589 93856,58561 180153,64506l295026 18865 0 737976 -1466894 0 0 -535261 -27010 -9011c-307783,442832 -728942,664272 -1264180,664272 -626777,0 -1091423,-199672 -1392512,-599767 -301744,-399298 -451867,-946636 -451867,-1641710 0,-836280 202621,-1488686 608778,-1955603 405383,-467689 1014185,-701159 1826403,-701159 522505,0 1069774,107314 1641805,322786zm-1070499 2988558l0 0 0 -2388722c-171914,-80327 -408333,-120140 -710147,-120140 -412125,0 -710147,165922 -894887,497742 -183851,332546 -276256,772476 -276256,1319768 0,996139 319813,1493834 959463,1493834 270217,0 491704,-81123 663617,-244002 172663,-162903 258210,-349000 258210,-558480z"/>
  <path class="fil2" d="M32613478 6651220l-3763282 0 0 -701183 2370723 -3117663 -1162833 0c-129105,0 -210206,24739 -244003,73563 -34500,49550 -51048,129152 -51048,240258l0 322786 -867034 -64600 0 -1393284 3671672 0 0 627596 -2398481 3182169 1309984 0c177882,0 267244,-104365 267244,-313845l0 -387361 867058 64669 0 1466895z"/>
  <path class="fil2" d="M35556209 1872981c460925,0 826496,111831 1097532,336337 270287,224436 406133,539755 406133,945865 0,270240 -58538,508976 -175682,714664 -116373,206460 -261183,367818 -433096,484214 -172710,117144 -381393,212452 -627573,285969 -412195,123066 -876092,184669 -1392559,184669 17976,325758 119345,588626 303991,788907 184647,199836 467666,299638 849083,299638 380597,0 761920,-135120 1143313,-406227l350522 747807c-123043,110310 -330276,224482 -622330,340761 -291984,117075 -626051,175635 -1000680,175635 -750709,0 -1300950,-207888 -1651541,-622985 -350522,-415120 -525501,-985045 -525501,-1710874 0,-725922 199719,-1334700 599111,-1826427 400094,-491704 959369,-737953 1679277,-737953zm-419615 2107949l0 0c224483,-40539 431645,-129105 622353,-267947 190685,-138139 285993,-302563 285993,-493248 0,-375354 -184647,-563043 -553237,-563043 -344623,0 -608871,137367 -793518,410650 -184646,273985 -286015,601335 -304061,982681 270287,-6015 517988,-29280 742470,-69093z"/>
  <path class="fil2" d="M38729414 1033705l599837 0 0 977392 1226683 0 -91585 774746 -1135098 0 0 2426218c0,270942 49526,460270 147899,567514 98374,107408 249948,161428 456455,161428 205617,0 413576,-64506 622329,-193681l276982 710217c-307760,215448 -698117,322692 -1171120,322692 -276981,0 -511223,-35155 -701112,-105793 -190709,-70638 -332546,-149327 -424951,-235764 -91516,-85477 -162879,-211586 -211656,-377531 -49503,-166764 -77332,-297390 -83301,-392698 -6062,-95307 -9034,-234968 -9034,-419614l0 -2462988 -655402 0 92335 -673377c289082,-24037 507502,-127654 655402,-308555 147150,-181674 283019,-438409 405337,-770206z"/>
  <path class="fil2" d="M42853047 2011097l0 3874411 525501 27736 0 737976 -2195018 0 0 -701183 303991 -27759c178678,-18045 267292,-116419 267292,-295120l0 -2564334c0,-104341 -16525,-175635 -50299,-212428 -33797,-36817 -93879,-54793 -180222,-54793l-322786 -18794 0 -765712 1651541 0zm-1162810 -797988l0 0c-129105,-126109 -193704,-287490 -193704,-484214 0,-196653 64599,-361077 193704,-493201 129081,-132125 298748,-198198 507432,-198198 209479,0 379848,66073 512019,198198 132078,132124 198198,296548 198198,493201 0,196724 -66120,358105 -198198,484214 -132171,126109 -302540,189210 -512019,189210 -208684,0 -378351,-63101 -507432,-189210z"/>
  <path class="fil2" d="M44109011 6732180c-105137,0 -186191,-29187 -243277,-87724 -56992,-58561 -85547,-135144 -85547,-229819 0,-94488 29280,-172546 87817,-234149 58538,-61603 138116,-92428 238760,-92428 100550,0 180855,29374 240937,87911 60058,58537 90064,135143 90064,229631 0,94676 -28461,172733 -85547,234337 -57086,61603 -138139,92241 -243207,92241z"/>
  <path class="fil2" d="M46481934 7394346c-164424,156115 -423336,234172 -773951,234172 -352112,0 -626121,-49526 -824319,-148531l0 -626215 427198 -35951 0 216267c0,80936 38315,135775 113376,164330 74266,28531 178608,42738 310053,42738 192862,0 327280,-57741 405337,-173364 78058,-115647 117075,-278526 117075,-488661l0 -247701c-143359,168052 -343008,252218 -598292,252218 -156841,0 -293529,-30146 -412851,-90134 -118619,-60012 -210228,-141112 -277051,-243207 -128379,-204167 -192885,-444448 -192885,-720703 0,-393330 106589,-691353 319790,-894092 212475,-202668 496221,-303991 850534,-303991 294324,0 572826,55565 833283,166601l0 1671061c0,255308 -2996,418983 -9034,490908 -27010,333341 -123067,578140 -288263,734255zm-225231 -1648475l0 0 0 -968428c-105044,-36114 -225208,-54020 -359533,-54020 -183944,0 -324330,67572 -421884,202552 -96852,135143 -145630,318339 -145630,549609 0,474453 155390,711668 467666,711668 129831,0 237964,-39836 326508,-119345 88613,-79649 132873,-186916 132873,-322036z"/>
  <path class="fil2" d="M48346676 4331521c225208,0 403886,54839 536057,164354 132078,109655 198128,263499 198128,461697 0,132078 -28485,248520 -85571,349141 -57016,100480 -127653,179333 -211656,236442 -84096,57086 -186191,103523 -306331,139638 -201194,60012 -427854,89994 -680142,89994 9011,159181 58608,287537 148672,385115 90065,97577 228204,146425 414395,146425 186168,0 372359,-66121 558456,-198198l171188 364798c-60058,54184 -161358,109655 -303991,166741 -142633,57110 -305606,85641 -488731,85641 -366320,0 -635062,-101439 -806250,-304155 -171188,-202715 -256735,-481218 -256735,-835530 0,-354313 97577,-651517 292779,-891821 195132,-239439 468415,-360282 819732,-360282zm-204892 1029235l0 0c109585,-19520 210931,-63054 303991,-130626 93131,-67572 139661,-147900 139661,-240937 0,-183195 -90088,-274804 -270287,-274804 -168122,0 -297227,67572 -387385,200468 -90064,133505 -139567,293482 -148602,479603 132171,-2902 252967,-14184 362622,-33704z"/>
  <path class="fil1" d="M2330419 4753734c143382,-66753 278034,-152066 375190,-266004 98537,-109351 159345,-252897 139497,-374536 -20550,-122434 -109327,-186612 -224880,-187431 -116513,-1755 -246975,50533 -365595,125360 -113212,69163 -210064,163160 -273025,268672 -62259,106519 -91680,226238 -85313,340738 11445,232698 162060,423476 377671,491867 51773,17578 116045,28765 166858,34266l58842 4985 42341 655c29912,-163 62726,-655 93551,-3557 124635,-9433 245922,-37496 359533,-88286 227642,-99988 422680,-284471 556209,-505910 133060,-220855 215214,-477473 209339,-721733 -4026,-244401 -93950,-462072 -259170,-616198 -78127,-78057 -187314,-148999 -289479,-193727 -100223,-42481 -211258,-63383 -328497,-61159 -235857,2902 -492265,101884 -729971,242669 -474126,283792 -907222,745583 -1079066,1245736 -83768,252147 -73446,503078 47326,732569 118783,231645 343828,428977 595343,586941 509515,321147 1117755,513704 1731378,661440 -634758,-4517 -1277006,-107338 -1885714,-376969 -298350,-142563 -597496,-336970 -810206,-647093 -105886,-153681 -177484,-339146 -204330,-529691 -27665,-191012 -11937,-383406 29912,-561826 21534,-89784 47326,-173435 81756,-264155l21861 -55050 27337 -64388c18701,-41147 37964,-81709 58936,-120984 83627,-157355 183031,-300199 290532,-435389 216736,-268672 469375,-506121 764565,-700504 294887,-190826 643793,-339474 1041804,-356841 197870,-7420 404611,24740 596045,102633 187642,79158 349070,180012 497906,321779 295682,281569 449784,699217 444939,1084730 -1615,387946 -122059,756256 -329784,1064600 -207396,307221 -502914,564589 -862072,702002 -178444,68204 -370580,106191 -561054,105208 -48052,0 -94090,-2879 -143031,-6928l-75647 -8449 -58373 -10018c-104740,-19333 -194641,-45055 -289644,-85453 -185278,-80960 -355506,-216267 -467361,-392066 -112628,-175050 -165197,-384366 -150217,-585068 12990,-201054 88777,-392183 204892,-545513 118619,-152394 269889,-267900 437449,-341604 159158,-68367 341651,-122598 541628,-90556 98116,16571 201662,63218 273985,145114 73704,80633 105231,189375 102001,286531 -7981,198549 -123534,352019 -253271,454676 -133693,102305 -287467,162785 -442926,193915z"/>
 </g>
</svg>
